<?xml version="1.0" encoding="utf-8"?>
<svg xmlns="http://www.w3.org/2000/svg" xmlns:xlink="http://www.w3.org/1999/xlink" style="margin: auto; background: rgb(234, 238, 243); display: block; shape-rendering: auto;" width="203px" height="203px" viewBox="0 0 100 100" preserveAspectRatio="xMidYMid">
<g transform="rotate(0 50 50)">
  <rect x="16.5" y="34.5" rx="12.73" ry="2.5" width="67" height="5" fill="#292664">
    <animate attributeName="opacity" values="1;0" keyTimes="0;1" dur="0.8928571428571428s" begin="-0.8522727272727273s" repeatCount="indefinite"></animate>
  </rect>
</g><g transform="rotate(16.363636363636363 50 50)">
  <rect x="16.5" y="34.5" rx="12.73" ry="2.5" width="67" height="5" fill="#667395">
    <animate attributeName="opacity" values="1;0" keyTimes="0;1" dur="0.8928571428571428s" begin="-0.8116883116883117s" repeatCount="indefinite"></animate>
  </rect>
</g><g transform="rotate(32.72727272727273 50 50)">
  <rect x="16.5" y="34.5" rx="12.73" ry="2.5" width="67" height="5" fill="#94a9ce">
    <animate attributeName="opacity" values="1;0" keyTimes="0;1" dur="0.8928571428571428s" begin="-0.7711038961038961s" repeatCount="indefinite"></animate>
  </rect>
</g><g transform="rotate(49.09090909090909 50 50)">
  <rect x="16.5" y="34.5" rx="12.73" ry="2.5" width="67" height="5" fill="#b5ccf1">
    <animate attributeName="opacity" values="1;0" keyTimes="0;1" dur="0.8928571428571428s" begin="-0.7305194805194805s" repeatCount="indefinite"></animate>
  </rect>
</g><g transform="rotate(65.45454545454545 50 50)">
  <rect x="16.5" y="34.5" rx="12.73" ry="2.5" width="67" height="5" fill="#f5f4fa">
    <animate attributeName="opacity" values="1;0" keyTimes="0;1" dur="0.8928571428571428s" begin="-0.689935064935065s" repeatCount="indefinite"></animate>
  </rect>
</g><g transform="rotate(81.81818181818181 50 50)">
  <rect x="16.5" y="34.5" rx="12.73" ry="2.5" width="67" height="5" fill="#f2bed1">
    <animate attributeName="opacity" values="1;0" keyTimes="0;1" dur="0.8928571428571428s" begin="-0.6493506493506493s" repeatCount="indefinite"></animate>
  </rect>
</g><g transform="rotate(98.18181818181819 50 50)">
  <rect x="16.5" y="34.5" rx="12.73" ry="2.5" width="67" height="5" fill="#87434d">
    <animate attributeName="opacity" values="1;0" keyTimes="0;1" dur="0.8928571428571428s" begin="-0.6087662337662337s" repeatCount="indefinite"></animate>
  </rect>
</g><g transform="rotate(114.54545454545455 50 50)">
  <rect x="16.5" y="34.5" rx="12.73" ry="2.5" width="67" height="5" fill="#552b2f">
    <animate attributeName="opacity" values="1;0" keyTimes="0;1" dur="0.8928571428571428s" begin="-0.5681818181818181s" repeatCount="indefinite"></animate>
  </rect>
</g><g transform="rotate(130.9090909090909 50 50)">
  <rect x="16.5" y="34.5" rx="12.73" ry="2.5" width="67" height="5" fill="#292664">
    <animate attributeName="opacity" values="1;0" keyTimes="0;1" dur="0.8928571428571428s" begin="-0.5275974025974026s" repeatCount="indefinite"></animate>
  </rect>
</g><g transform="rotate(147.27272727272728 50 50)">
  <rect x="16.5" y="34.5" rx="12.73" ry="2.5" width="67" height="5" fill="#667395">
    <animate attributeName="opacity" values="1;0" keyTimes="0;1" dur="0.8928571428571428s" begin="-0.487012987012987s" repeatCount="indefinite"></animate>
  </rect>
</g><g transform="rotate(163.63636363636363 50 50)">
  <rect x="16.5" y="34.5" rx="12.73" ry="2.5" width="67" height="5" fill="#94a9ce">
    <animate attributeName="opacity" values="1;0" keyTimes="0;1" dur="0.8928571428571428s" begin="-0.4464285714285714s" repeatCount="indefinite"></animate>
  </rect>
</g><g transform="rotate(180 50 50)">
  <rect x="16.5" y="34.5" rx="12.73" ry="2.5" width="67" height="5" fill="#b5ccf1">
    <animate attributeName="opacity" values="1;0" keyTimes="0;1" dur="0.8928571428571428s" begin="-0.40584415584415584s" repeatCount="indefinite"></animate>
  </rect>
</g><g transform="rotate(196.36363636363637 50 50)">
  <rect x="16.5" y="34.5" rx="12.73" ry="2.5" width="67" height="5" fill="#f5f4fa">
    <animate attributeName="opacity" values="1;0" keyTimes="0;1" dur="0.8928571428571428s" begin="-0.36525974025974023s" repeatCount="indefinite"></animate>
  </rect>
</g><g transform="rotate(212.72727272727272 50 50)">
  <rect x="16.5" y="34.5" rx="12.73" ry="2.5" width="67" height="5" fill="#f2bed1">
    <animate attributeName="opacity" values="1;0" keyTimes="0;1" dur="0.8928571428571428s" begin="-0.3246753246753247s" repeatCount="indefinite"></animate>
  </rect>
</g><g transform="rotate(229.0909090909091 50 50)">
  <rect x="16.5" y="34.5" rx="12.73" ry="2.5" width="67" height="5" fill="#87434d">
    <animate attributeName="opacity" values="1;0" keyTimes="0;1" dur="0.8928571428571428s" begin="-0.28409090909090906s" repeatCount="indefinite"></animate>
  </rect>
</g><g transform="rotate(245.45454545454547 50 50)">
  <rect x="16.5" y="34.5" rx="12.73" ry="2.5" width="67" height="5" fill="#552b2f">
    <animate attributeName="opacity" values="1;0" keyTimes="0;1" dur="0.8928571428571428s" begin="-0.2435064935064935s" repeatCount="indefinite"></animate>
  </rect>
</g><g transform="rotate(261.8181818181818 50 50)">
  <rect x="16.5" y="34.5" rx="12.73" ry="2.5" width="67" height="5" fill="#292664">
    <animate attributeName="opacity" values="1;0" keyTimes="0;1" dur="0.8928571428571428s" begin="-0.20292207792207792s" repeatCount="indefinite"></animate>
  </rect>
</g><g transform="rotate(278.1818181818182 50 50)">
  <rect x="16.5" y="34.5" rx="12.73" ry="2.5" width="67" height="5" fill="#667395">
    <animate attributeName="opacity" values="1;0" keyTimes="0;1" dur="0.8928571428571428s" begin="-0.16233766233766234s" repeatCount="indefinite"></animate>
  </rect>
</g><g transform="rotate(294.54545454545456 50 50)">
  <rect x="16.5" y="34.5" rx="12.73" ry="2.5" width="67" height="5" fill="#94a9ce">
    <animate attributeName="opacity" values="1;0" keyTimes="0;1" dur="0.8928571428571428s" begin="-0.12175324675324675s" repeatCount="indefinite"></animate>
  </rect>
</g><g transform="rotate(310.90909090909093 50 50)">
  <rect x="16.5" y="34.5" rx="12.73" ry="2.5" width="67" height="5" fill="#b5ccf1">
    <animate attributeName="opacity" values="1;0" keyTimes="0;1" dur="0.8928571428571428s" begin="-0.08116883116883117s" repeatCount="indefinite"></animate>
  </rect>
</g><g transform="rotate(327.27272727272725 50 50)">
  <rect x="16.5" y="34.5" rx="12.73" ry="2.5" width="67" height="5" fill="#f5f4fa">
    <animate attributeName="opacity" values="1;0" keyTimes="0;1" dur="0.8928571428571428s" begin="-0.040584415584415584s" repeatCount="indefinite"></animate>
  </rect>
</g><g transform="rotate(343.6363636363636 50 50)">
  <rect x="16.5" y="34.5" rx="12.73" ry="2.5" width="67" height="5" fill="#f2bed1">
    <animate attributeName="opacity" values="1;0" keyTimes="0;1" dur="0.8928571428571428s" begin="0s" repeatCount="indefinite"></animate>
  </rect>
</g>
<!-- [ldio] generated by https://loading.io/ --></svg>